<svg xmlns="http://www.w3.org/2000/svg" width="780.878" height="549.792" viewBox="0 0 780.878 549.792">
  <g id="illustration" transform="translate(0 -87.056)">
    <g id="freepik--background-complete--inject-15" transform="translate(0 55)">
      <rect id="Rectangle_3" data-name="Rectangle 3" width="780.878" height="0.39" transform="translate(0 511.319)" fill="#ebebeb"/>
      <rect id="Rectangle_4" data-name="Rectangle 4" width="51.725" height="0.39" transform="translate(650.909 536.448)" fill="#ebebeb"/>
      <rect id="Rectangle_5" data-name="Rectangle 5" width="13.572" height="0.39" transform="translate(503.713 540.696)" fill="#ebebeb"/>
      <rect id="Rectangle_6" data-name="Rectangle 6" width="29.97" height="0.39" transform="translate(619.377 521.955)" fill="#ebebeb"/>
      <rect id="Rectangle_7" data-name="Rectangle 7" width="67.452" height="0.39" transform="translate(81.93 524.579)" fill="#ebebeb"/>
      <rect id="Rectangle_8" data-name="Rectangle 8" width="9.886" height="0.39" transform="translate(163.297 524.579)" fill="#ebebeb"/>
      <rect id="Rectangle_9" data-name="Rectangle 9" width="146.305" height="0.39" transform="translate(205.324 531.169)" fill="#ebebeb"/>
      <circle id="Ellipse_2" data-name="Ellipse 2" cx="59.206" cy="59.206" r="59.206" transform="translate(477.456 301.089) rotate(-45)" fill="#f0f0f0"/>
      <path id="Path_9" data-name="Path 9" d="M76.439,199.74H238.565s-2.343-12.838-32.344-12.1c5.95-18.741-10.839-39.2-48.711-39.981s-24.566,29.673-24.566,29.673-63.657-10.932-44.4,11.744C56.995,190.276,50.763,194.3,76.439,199.74Z" transform="translate(33.978 -2.959)" fill="#f0f0f0"/>
      <path id="Path_10" data-name="Path 10" d="M419.562,246.6c3.686-18.444-27.831-38.654-85.9-39.434s-28.939,29.314-28.939,29.314-100.28-10.932-64.344,11.573c-47.821,1.078-56.223,5.06-15.415,10.5H472.4S465.119,245.959,419.562,246.6Z" transform="translate(111.701 30.472)" fill="#fafafa"/>
      <path id="Path_11" data-name="Path 11" d="M335.421,170.774H503.4s37.482-21.521-6.95-24.3c7.637-18.4-11.12-49.6-76.7-50.32s-31.579,42.339-31.579,42.339-99.952-28.814-64.891,17.008C307.981,155.5,253.523,170.774,335.421,170.774Z" transform="translate(163.669 -31.887)" fill="#f5f5f5"/>
      <path id="Path_12" data-name="Path 12" d="M101.434,298.7h75.48s16.851-9.667-3.124-10.932c3.436-8.262-5-22.286-34.468-22.614s-14.181,19.022-14.181,19.022-44.916-12.931-29.174,7.653C89.111,291.842,64.623,298.7,101.434,298.7Z" transform="translate(45.856 63.052)" fill="#f5f5f5"/>
      <path id="Path_13" data-name="Path 13" d="M105.123,99.6S83.821,85.947,69,105.36c12.166-12.057,35.3.094,35.3.094s26.55-12.026,35.3,0C130.174,86.072,105.123,99.6,105.123,99.6Z" transform="translate(38.761 -32.566)" fill="#f0f0f0"/>
      <path id="Path_14" data-name="Path 14" d="M173.07,214.009s-12.806-8.215-21.74,3.467c7.34-7.262,21.256,0,21.256,0s15.93-7.247,21.255,0C188.156,205.919,173.07,214.009,173.07,214.009Z" transform="translate(85.011 32.748)" fill="#f0f0f0"/>
      <path id="Path_15" data-name="Path 15" d="M318.7,91.645s-6.4-4.107-10.932,1.734c3.67-3.639,10.636,0,10.636,0s7.965-3.608,10.62,0C326.246,87.568,318.7,91.645,318.7,91.645Z" transform="translate(172.892 -35.203)" fill="#f5f5f5"/>
      <path id="Path_16" data-name="Path 16" d="M419,181.425s-6.419-4.107-10.932,1.734c3.654-3.623,10.62,0,10.62,0s7.965-3.623,10.62,0C426.53,177.348,419,181.425,419,181.425Z" transform="translate(229.236 15.232)" fill="#f5f5f5"/>
    </g>
    <g id="freepik--Shadow--inject-15" transform="translate(87.63 601.49)">
      <ellipse id="freepik--path--inject-15" cx="302.809" cy="17.679" rx="302.809" ry="17.679" fill="#f5f5f5"/>
    </g>
    <g id="freepik--Rocket--inject-15" transform="translate(162.584 454.397)">
      <path id="Path_17" data-name="Path 17" d="M229.445,367.153c5.326,30.829-19.538,46.009-43.729,38.357-16.477-5.232-32.8-1.218-43.854,4.061a2.124,2.124,0,0,1-2.514-3.28,76.369,76.369,0,0,1,5.95-6.356,2.093,2.093,0,0,0-2.077-3.514c-9.62,2.936-23.8,5.685-37.482,2.468a2.108,2.108,0,0,1-.593-3.873c13.665-8.09,34.515-29.345,54.052-36.248a2.108,2.108,0,0,0-.828-4.092,71.24,71.24,0,0,0-9.183,1.125,2.108,2.108,0,0,1-1.562-3.873C175.018,334.918,222.636,327.781,229.445,367.153Z" transform="translate(-104.103 -295.259)" fill="#407bff"/>
      <path id="Path_18" data-name="Path 18" d="M229.445,367.153c5.326,30.829-19.538,46.009-43.729,38.357-16.477-5.232-32.8-1.218-43.854,4.061a2.124,2.124,0,0,1-2.514-3.28,76.369,76.369,0,0,1,5.95-6.356,2.093,2.093,0,0,0-2.077-3.514c-9.62,2.936-23.8,5.685-37.482,2.468a2.108,2.108,0,0,1-.593-3.873c13.665-8.09,34.515-29.345,54.052-36.248a2.108,2.108,0,0,0-.828-4.092,71.24,71.24,0,0,0-9.183,1.125,2.108,2.108,0,0,1-1.562-3.873C175.018,334.918,222.636,327.781,229.445,367.153Z" transform="translate(-104.103 -295.259)" fill="#ff9d00" opacity="0.7"/>
      <path id="Path_19" data-name="Path 19" d="M166.612,415.759,156.148,335.2a2.983,2.983,0,0,1,3.124-3.342l50.757,3.623a2.967,2.967,0,0,1,2.733,2.577l7.809,60.581a2.967,2.967,0,0,1-2,3.123l-48.149,16.445a2.967,2.967,0,0,1-3.811-2.452Z" transform="translate(-74.879 -298.871)"/>
      <path id="Path_20" data-name="Path 20" d="M158.626,394.876l-6.247-48.321a2.967,2.967,0,0,1,2.889-3.342l58.285-1.093a2.967,2.967,0,0,1,3,2.592l4.685,35.592a2.983,2.983,0,0,1-2.249,3.264l-56.629,13.806a2.983,2.983,0,0,1-3.733-2.5Z" transform="translate(-76.997 -293.106)" fill="#263238"/>
      <rect id="Rectangle_10" data-name="Rectangle 10" width="30.86" height="1.593" transform="translate(305.294 98.133) rotate(-9.35)" fill="#157f1f"/>
      <path id="Path_68" data-name="Path 68" d="M0,0H9.074V1.593H0Z" transform="translate(288.422 100.917) rotate(-9.35)" fill="#157f1f"/>
      <path id="Path_21" data-name="Path 21" d="M490.2,343.305s-42-39.341-102.154-31.548L198.561,329.671a25.988,25.988,0,0,0-23.333,29.22l6.434,49.664a25.988,25.988,0,0,0,30.017,22.3l187.8-31C459.624,392.063,490.2,343.305,490.2,343.305Z" transform="translate(-64.27 -310.736)" fill="#157f1f"/>
      <path id="Path_22" data-name="Path 22" d="M397.222,340.609A135.389,135.389,0,0,1,363.269,374.7a11.276,11.276,0,0,1-17.648-7.809l-5-38.653a11.26,11.26,0,0,1,15.1-11.994A134.825,134.825,0,0,1,397.222,340.609Z" transform="translate(28.712 -308.039)" fill="#fff" opacity="0.3"/>
      <circle id="Ellipse_3" data-name="Ellipse 3" cx="32.266" cy="32.266" r="32.266" transform="translate(259.612 80.581) rotate(-87.44)" fill="#fff"/>
      <path id="Path_23" data-name="Path 23" d="M321.451,351.906a21.865,21.865,0,0,1-18.928,19.881c-.312,0-.64.078-.968.094a21.671,21.671,0,0,1-4.154,0,9.023,9.023,0,0,1-1.453-.187l-1.046-.2a21.865,21.865,0,0,1-16.789-18.476,23.432,23.432,0,0,1-.172-3.124,21.865,21.865,0,0,1,43.4-2.483,21.119,21.119,0,0,1,.109,4.5Z" transform="translate(-6.449 -300.393)" fill="#407bff" opacity="0.3"/>
      <path id="Path_24" data-name="Path 24" d="M321.451,351.195a21.865,21.865,0,0,1-18.928,19.881c-.312,0-.64.078-.968.094a23.012,23.012,0,0,1-4.154,0,9.016,9.016,0,0,1-1.452-.187l-1.046-.2A21.865,21.865,0,0,1,278.112,352.3a23.432,23.432,0,0,1-.172-3.124,20.849,20.849,0,0,1,18.835-18.6c11.947-1.421,22.9,6.5,24.488,17.679a20.853,20.853,0,0,1,.187,2.936Z" transform="translate(-6.449 -299.681)" fill="#157f1f" opacity="0.3"/>
    </g>
    <g id="freepik--Character--inject-15" transform="translate(321.985 87.056)">
      <path id="Path_25" data-name="Path 25" d="M262.87,319.75l9.761-.968,1.374-22.3-9.761.968Z" transform="translate(-174.316 48.597)" fill="#cf7a64"/>
      <path id="Path_26" data-name="Path 26" d="M226.99,323.6l9.6-.953,2.046-22.692-9.6.953Z" transform="translate(-194.472 50.547)" fill="#cf7a64"/>
      <path id="Path_27" data-name="Path 27" d="M237.941,313.108l-10.807,1.078a.828.828,0,0,0-.734.734l-.828,8.715a1.452,1.452,0,0,0,1.562,1.562c3.764-.437,5.56-.843,10.308-1.312,2.92-.3,6.84-.562,10.932-.968s4.076-4.435,2.374-4.685c-7.606-.875-8.543-2.874-11.182-4.763A2.389,2.389,0,0,0,237.941,313.108Z" transform="translate(-195.271 57.926)" fill="#263238"/>
      <path id="Path_28" data-name="Path 28" d="M273.639,309.472l-10.495,1.062a.8.8,0,0,0-.734.734l-.828,8.715a1.437,1.437,0,0,0,1.562,1.562c3.779-.437,9.214-1.218,13.978-1.687,5.575-.562,5.607-.266,12.135-.921,3.936-.406,4.529-4.5,2.842-4.685-7.731-.89-9.074-.921-16.086-4.264A4.686,4.686,0,0,0,273.639,309.472Z" transform="translate(-175.043 55.893)" fill="#263238"/>
      <path id="Path_29" data-name="Path 29" d="M246.043,121.58c2.436.219,5.185.484,7.809.609s5.247.219,7.809.219a65.251,65.251,0,0,0,7.387-.437,19.787,19.787,0,0,0,5.654-1.452l-2.874,4.4c0,.515.109.515,0,.2a6.246,6.246,0,0,0-.562-1.374A22.784,22.784,0,0,0,268.689,120a84.1,84.1,0,0,0-7.231-7.637c-2.624-2.514-5.388-4.951-8.184-7.371s-5.7-4.826-8.512-7.153L248.511,92c3.483,1.78,6.762,3.717,10.073,5.732s6.5,4.2,9.652,6.544a80.4,80.4,0,0,1,9.2,7.809,36.449,36.449,0,0,1,4.295,5.232,17.773,17.773,0,0,1,1.905,3.7,11.963,11.963,0,0,1,.718,5.747l-.344,2.749-2.561,1.7a28.112,28.112,0,0,1-10.12,3.951,59.456,59.456,0,0,1-9.371,1.156,85.812,85.812,0,0,1-8.964,0,86.379,86.379,0,0,1-8.933-.828Z" transform="translate(-184.882 -66.271)" fill="#ce7a63"/>
      <path id="Path_30" data-name="Path 30" d="M252.618,96.59l-5.747-7.2-4.31,10.323s5.216,6.138,10.745,3.124Z" transform="translate(-185.725 -67.737)" fill="#cf7a64"/>
      <path id="Path_31" data-name="Path 31" d="M240.788,86.97l-.968,11.713,4.279,2.311,4.295-10.276Z" transform="translate(-187.264 -69.096)" fill="#cf7a64"/>
      <path id="Path_32" data-name="Path 32" d="M236.248,89.278l8.746-3.623a1.109,1.109,0,0,1,1.562.625l5.638,17.976a1.374,1.374,0,0,1-.828,1.562l-8.746,3.623a1.109,1.109,0,0,1-1.562-.625L235.42,90.95A1.374,1.374,0,0,1,236.248,89.278Z" transform="translate(-189.767 -69.906)" fill="#263238"/>
      <path id="Path_33" data-name="Path 33" d="M240.426,128.914c6.356,7.684,32.406.484,32.406.484l-2.2-17.539s-6.575-1.968-19.616-2.374C237.646,109,233.461,120.5,240.426,128.914Z" transform="translate(-188.792 -56.457)" fill="#157f1f"/>
      <path id="Path_34" data-name="Path 34" d="M273.764,296.49l-.718,11.495-9.745.968.7-11.495Z" transform="translate(-174.074 48.603)" opacity="0.2"/>
      <path id="Path_35" data-name="Path 35" d="M228.666,300.918l9.62-.968-1.062,11.7-9.6.968Z" transform="translate(-194.118 50.547)" opacity="0.2"/>
      <path id="Path_36" data-name="Path 36" d="M272,114.306c3.779,9.808,13.056,39.044,9.823,83.179l-51.413,5.169c-1.343-7.809-1.562-50.741-13.868-87.084a135.25,135.25,0,0,1,16.945-3.889,189.859,189.859,0,0,1,21.865-2.2,95.873,95.873,0,0,1,11.2.64A6.622,6.622,0,0,1,272,114.306Z" transform="translate(-200.342 -56.451)" fill="#157f1f"/>
      <path id="Path_37" data-name="Path 37" d="M248.27,117.7l-2.015.266c.2,17.179.453,21.865-15.055,37.919a67.062,67.062,0,0,0-7.59,9.246c.2,2.03.406,4,.593,5.9,4.014-3.67,9.371-8.48,13.369-11.823C255.61,144.157,248.786,117.482,248.27,117.7Z" transform="translate(-196.37 -51.834)" opacity="0.2"/>
      <path id="Path_38" data-name="Path 38" d="M228.435,120.281C230,126.294,230,141.1,226.249,158.56a249.318,249.318,0,0,0-8.949-42.7h0C220.627,115.1,226.9,114.644,228.435,120.281Z" transform="translate(-199.915 -53.119)" opacity="0.2"/>
      <path id="Path_39" data-name="Path 39" d="M227.687,97.65c2.265,6.872,4.045,15.493-.3,20.678,0,0,3.717,6.825,16.789,5.513,11.932-1.2,5.076-7.715,5.076-7.715-8.09-1.078-8.886-10.792-8.2-16.383Z" transform="translate(-194.247 -63.097)" fill="#cf7a64"/>
      <path id="Path_40" data-name="Path 40" d="M239.933,114.075l3.124,2.842a.859.859,0,0,1,.266.8l-.64,2.858a.765.765,0,0,1-.656.609l-3.045.453a.843.843,0,0,1-.765-.281l-2.093-2.5a.828.828,0,0,1,0-1.015l2.608-3.655a.828.828,0,0,1,1.2-.109Z" transform="translate(-189.439 -53.987)" fill="#263238"/>
      <path id="Path_41" data-name="Path 41" d="M244.572,116.528a44.528,44.528,0,0,1-5.138,9.636s-12.7-5.778-13.462-14.056a.906.906,0,0,1,.344-.8c.484-.375,1.359-1.062,2.186-1.749a.875.875,0,0,1,1.343.2C230.86,111.561,234.139,115.06,244.572,116.528Z" transform="translate(-195.046 -56.533)" fill="#fff"/>
      <path id="Path_42" data-name="Path 42" d="M238.17,116.687a24.4,24.4,0,0,1,6.513,7.418,16.523,16.523,0,0,0,1.125-14.056.968.968,0,0,0-.625-.562c-.547-.141-1.562-.39-2.608-.593a.906.906,0,0,0-1.046,1A6.247,6.247,0,0,1,238.17,116.687Z" transform="translate(-188.191 -56.787)" fill="#fff"/>
      <path id="Path_43" data-name="Path 43" d="M250.294,117.631c.5-.219,5.56,23.676-11.9,38.185-7.122,5.919-18.569,16.492-18.554,16.477,1.062-4.2,4.4-10.682,12.791-19.178,15.165-15.352,15.149-19.522,15.774-35.14Z" transform="translate(-198.488 -51.873)" fill="#263238"/>
      <path id="Path_44" data-name="Path 44" d="M240.921,99.775a21.256,21.256,0,0,0,1.562,11.51,12.494,12.494,0,0,1-3.639-.718c-4.685-1.562-7.262-4.685-10.151-9.371-.328-1.234-.687-2.421-1.062-3.576Z" transform="translate(-194.112 -63.114)" opacity="0.2"/>
      <path id="Path_45" data-name="Path 45" d="M232.776,86.193c1.858-14.7,12.666.859,9.667,8.168C240.6,98.828,232.324,89.739,232.776,86.193Z" transform="translate(-191.231 -72.958)" fill="#263238"/>
      <path id="Path_46" data-name="Path 46" d="M223.653,99.016c3.7,8.933,5.419,14.353,11.6,17.539,9.292,4.826,18.991-2.983,17.991-12.791-.89-8.824-6.794-21.958-16.883-22.708a12.775,12.775,0,0,0-12.713,17.96Z" transform="translate(-196.975 -72.443)" fill="#cf7a64"/>
      <path id="Path_47" data-name="Path 47" d="M233.492,110.735a6.247,6.247,0,0,0,4.966-4.576,15.336,15.336,0,0,1-6.669-5.185s3.967-5.7,3.545-9c5.091,0,17.023-4.92,14.321-10.354s-13.415-8.137-19.663-4.295a23.3,23.3,0,0,1-13.369,4.045,15.618,15.618,0,0,0,4.576,1.812,17.539,17.539,0,0,0-5.263,13.275c.3,6.981-3.5,9.792-3.5,9.792s4.685.7,6.122-1.359c-.64,2.28,3.217,10.276,11.7,11.385C239.755,117.513,233.492,110.735,233.492,110.735Z" transform="translate(-202.645 -75.525)" fill="#263238"/>
      <path id="Path_48" data-name="Path 48" d="M224.526,103.754c3.514,1.562,6.247,2.093,8.059,1.031s1.3-4.685-1.015-6.762c-2.077-1.827-6.169-3.561-8.543-1.562S220.9,102.1,224.526,103.754Z" transform="translate(-197.567 -64.266)" fill="#cf7a64"/>
      <path id="Path_49" data-name="Path 49" d="M270.126,165.83S292.24,238.545,293.8,266.048c1.718,30.1-2.624,110.073-2.624,110.073L273.8,377.885s-3.248-76.151-7.653-105.606C261.364,240.31,237.36,169.2,237.36,169.2Z" transform="translate(-188.646 -24.796)" fill="#263238"/>
      <path id="Path_50" data-name="Path 50" d="M249.573,187.78l-2.733,15.961c3.826,12.916,7.653,26.675,10.448,38.622A149.429,149.429,0,0,0,249.573,187.78Z" transform="translate(-183.321 -12.466)" opacity="0.2"/>
      <path id="Path_51" data-name="Path 51" d="M259.77,299.836l.562,6.419,19.444-1.952.562-7.262Z" transform="translate(-176.057 48.912)" fill="#363636"/>
      <path id="Path_52" data-name="Path 52" d="M258.71,167s7.2,65.016,4.685,93.081c-2.8,30.72-20.584,122.614-20.584,122.614l-17.6,1.765s9.683-88.614,9.683-118.694c0-32.719-9.371-95.361-9.371-95.361Z" transform="translate(-195.472 -24.139)" fill="#263238"/>
      <path id="Path_53" data-name="Path 53" d="M224.91,303.629l-.25,6.044,19.35-1.952,1.968-6.841Z" transform="translate(-195.781 51.069)" fill="#363636"/>
      <path id="Path_54" data-name="Path 54" d="M232.624,91.891c.25.75.859,1.218,1.328,1.062s.672-.89.406-1.562-.843-1.218-1.327-1.062S232.358,91.142,232.624,91.891Z" transform="translate(-191.375 -67.224)" fill="#263238"/>
      <path id="Path_55" data-name="Path 55" d="M237.941,90.161c.25.75.859,1.218,1.328,1.062s.672-.89.406-1.562-.843-1.218-1.327-1.062S237.691,89.427,237.941,90.161Z" transform="translate(-188.384 -68.196)" fill="#263238"/>
      <path id="Path_56" data-name="Path 56" d="M236.29,90.38a29.124,29.124,0,0,0,5.7,5.2,4.342,4.342,0,0,1-3.28,1.812Z" transform="translate(-189.247 -67.181)" fill="#ba4d3c"/>
      <path id="Path_57" data-name="Path 57" d="M238.862,97.209a.234.234,0,0,0,.125-.3.25.25,0,0,0-.3-.141,6.247,6.247,0,0,1-5.56-.578.234.234,0,0,0-.328,0,.25.25,0,0,0,0,.328A6.559,6.559,0,0,0,238.862,97.209Z" transform="translate(-191.241 -63.952)" fill="#263238"/>
      <path id="Path_58" data-name="Path 58" d="M230.6,91.384a.453.453,0,0,0,.281-.281,3.5,3.5,0,0,1,2.249-2.358.437.437,0,0,0,.312-.562.469.469,0,0,0-.562-.328,4.389,4.389,0,0,0-2.874,2.936.469.469,0,0,0,.594.593Z" transform="translate(-192.79 -68.607)" fill="#263238"/>
      <path id="Path_59" data-name="Path 59" d="M241.136,87.644a.438.438,0,0,0,.172-.125.468.468,0,0,0,0-.64,4.685,4.685,0,0,0-4.029-1.2.462.462,0,0,0,.25.89h0a3.7,3.7,0,0,1,3.124.984A.469.469,0,0,0,241.136,87.644Z" transform="translate(-188.877 -69.864)" fill="#263238"/>
      <path id="Path_60" data-name="Path 60" d="M216.244,123.53l13.088,5.294s-10.776,32.047-8.449,36.389c3.124,5.9,11.573,15.321,16.586,21.583a13.556,13.556,0,0,1-3.124,6.356c-10.526-5-27.112-20.693-27.971-26.706C204.484,152.735,216.244,123.53,216.244,123.53Z" transform="translate(-206.168 -48.559)" fill="#cf7a64"/>
      <path id="Path_61" data-name="Path 61" d="M220.927,113.631c-10.7,3.467-12.2,27.253-12.2,27.253l16.555,8.5a49.086,49.086,0,0,0,10-19.506C238.169,117.8,230.329,110.585,220.927,113.631Z" transform="translate(-204.729 -54.511)" fill="#157f1f"/>
      <path id="Path_62" data-name="Path 62" d="M236.638,314.925a2.8,2.8,0,0,0,1.78-.672,1.343,1.343,0,0,0,.328-1.249.75.75,0,0,0-.468-.594c-1.124-.437-4,1.765-4.326,2.015a.25.25,0,0,0,0,.25.2.2,0,0,0,.187.156A10.416,10.416,0,0,0,236.638,314.925Zm1.171-2.124a.672.672,0,0,1,.312,0,.3.3,0,0,1,.172.25.937.937,0,0,1-.2.859,4.685,4.685,0,0,1-3.389.515,9.074,9.074,0,0,1,3.108-1.687Z" transform="translate(-190.579 57.514)" fill="#407bff"/>
      <path id="Path_63" data-name="Path 63" d="M234.142,315.529h.109c.937-.64,2.593-2.936,2.249-3.982a.765.765,0,0,0-.8-.515,1.218,1.218,0,0,0-.937.39c-1,1.015-.875,3.811-.875,3.92a.2.2,0,0,0,.125.2Zm1.452-4.092h.109c.3,0,.344.141.359.187.2.625-.828,2.343-1.718,3.124a5.326,5.326,0,0,1,.765-3.124.765.765,0,0,1,.515-.187Z" transform="translate(-190.597 56.77)" fill="#407bff"/>
      <path id="Path_64" data-name="Path 64" d="M273.181,311.234a3.5,3.5,0,0,0,2.249-.828,1.2,1.2,0,0,0,.3-1.14.8.8,0,0,0-.453-.578c-1.249-.531-4.873,1.812-5.279,2.077a.265.265,0,0,0-.094.25.234.234,0,0,0,.2.172A16.538,16.538,0,0,0,273.181,311.234Zm1.484-2.171a.938.938,0,0,1,.437,0,.281.281,0,0,1,.172.234.8.8,0,0,1-.187.75c-.515.593-2.093.828-4.264.7a12.494,12.494,0,0,1,3.92-1.687Z" transform="translate(-170.368 55.411)" fill="#407bff"/>
      <path id="Path_65" data-name="Path 65" d="M270.154,311.895h.094c1.093-.625,3.124-2.936,2.827-4-.078-.25-.3-.547-.937-.547a1.562,1.562,0,0,0-1.2.515,6.247,6.247,0,0,0-1.031,3.842.219.219,0,0,0,.109.187A.156.156,0,0,0,270.154,311.895Zm1.859-4.123h.141c.422,0,.469.156.484.2.187.64-1.171,2.436-2.28,3.264a5.326,5.326,0,0,1,.906-3.124A1.233,1.233,0,0,1,272.013,307.772Z" transform="translate(-170.371 54.703)" fill="#407bff"/>
      <path id="Path_66" data-name="Path 66" d="M226.593,163.18l9.2.312-5.607,9.589s-8.043-.547-8.855-6.825Z" transform="translate(-197.651 -26.285)" fill="#cf7a64"/>
      <path id="Path_67" data-name="Path 67" d="M236.945,166.582l-5.576,8.434-4.42-2.046,5.685-9.589Z" transform="translate(-194.494 -26.173)" fill="#cf7a64"/>
    </g>
  </g>
</svg>
