<svg xmlns="http://www.w3.org/2000/svg" xmlns:xlink="http://www.w3.org/1999/xlink" width="398.264" height="318.904" viewBox="0 0 398.264 318.904">
  <defs>
    <clipPath id="clip-path">
      <path id="Path_85" data-name="Path 85" d="M274.81,161.53a64.89,64.89,0,0,0-5.54,45.79c6.42,26,24.21,56,24.21,56L315.64,256s-1.75-43.15-11.08-63.57S278,161,274.81,161.53Z" fill="#157f1f" stroke="#263238" stroke-linecap="round" stroke-linejoin="round" stroke-width="1"/>
    </clipPath>
    <clipPath id="clip-path-2">
      <path id="Path_98" data-name="Path 98" d="M220.92,234s4.26,1.28,15.69-5.17l3.14,12.35s-8.11,3.5-20.1,1.85Z" fill="#fff" stroke="#263238" stroke-linecap="round" stroke-linejoin="round" stroke-width="1"/>
    </clipPath>
    <clipPath id="clip-path-3">
      <path id="Path_108" data-name="Path 108" d="M235.79,186.1s-7.48,13.74-6.06,25.26,6.06,23,7.27,28.08-2.63,17-1.82,20.6,17.78,5.46,32.33,6.07,21-3.24,21.82-7.28,1.21-3.43.6-10.91-7.27-47.07-11.31-54.75S255.39,178.83,252.15,178,240,178.43,235.79,186.1Z" fill="#fff" stroke="#263238" stroke-linecap="round" stroke-linejoin="round" stroke-width="1"/>
    </clipPath>
    <clipPath id="clip-path-4">
      <path id="Path_116" data-name="Path 116" d="M229.84,174.7s7.4,20.31,9.52,19.67,10.58-15,11-17.77-2.54-9.31-2.54-9.31a56.07,56.07,0,0,0-11.64,4.23C229.62,174.7,229.84,174.7,229.84,174.7Z" fill="#fff" stroke="#263238" stroke-linecap="round" stroke-linejoin="round" stroke-width="1"/>
    </clipPath>
    <clipPath id="clip-path-5">
      <path id="Path_125" data-name="Path 125" d="M259,245.09s-8.89-6.86-11.51-8.68-8.69.6-10.71.6-4.65,2-4.24,3.44a5.13,5.13,0,0,0,2,2.42s-1.42,2.43-.21,4.25a6.07,6.07,0,0,1,1.22,3,9,9,0,0,0,2.22,3.23c1.21.81,3.84,1.21,7.07,1.21s8.89-2.22,8.89-2.22l5.66-.2Z" fill="#fff" stroke="#263238" stroke-linecap="round" stroke-linejoin="round" stroke-width="1"/>
    </clipPath>
    <clipPath id="clip-path-6">
      <path id="Path_129" data-name="Path 129" d="M264.88,188.33s-7.27,6.66-4.44,15.55S275,221.05,278,225.09a65.312,65.312,0,0,0,7.28,7.88s-9.1,4.45-15.56,7.28a81.064,81.064,0,0,1-11.31,4l.2,7.67s22.22,1,32.52-3,17.78-9.09,17.78-15.15S296,216.41,289.12,205.5s-11.92-16.57-18.78-17.58" fill="#fff" stroke="#263238" stroke-linecap="round" stroke-linejoin="round" stroke-width="1"/>
    </clipPath>
    <clipPath id="clip-path-7">
      <path id="Path_135" data-name="Path 135" d="M227.59,142.38a59.718,59.718,0,0,0-2.07,6c-.49,2.06-3.1,5.79-4.63,6.74s-5.1,2.28-3.53,4a17.55,17.55,0,0,0,4.71,3.06s-1.23,7.1-.45,11.19,3.66,4.78,6.27,4.74,12.46-1.21,15.79-5.21,8.69-16.65,6.06-24.87S232.25,134.57,227.59,142.38Z" fill="#fff" stroke="#263238" stroke-linecap="round" stroke-linejoin="round" stroke-width="1"/>
    </clipPath>
    <clipPath id="clip-path-8">
      <path id="Path_143" data-name="Path 143" d="M223.48,145.22s16.33,4.48,16.68,7.61-2.53,9.73-1,16.38,10.59,8.58,18.15,6,13-16.5,12-28S256.6,129,247.44,127.27,224.37,132.17,223.48,145.22Z" fill="#157f1f" stroke="#263238" stroke-linecap="round" stroke-linejoin="round" stroke-width="1"/>
    </clipPath>
  </defs>
  <g id="Startup_life-bro" data-name="Startup life-bro" transform="translate(-50.807 -93.096)">
    <g id="freepik--background-simple--inject-16">
      <path id="Path_69" data-name="Path 69" d="M434.75,386.27H74.07S59.73,391,51.82,353.71s32.8-47.22,42.48-79.38-32.55-25.39-29-69.4S126.85,160.07,155,166s24.63-14.39,57.18-48.25S294,87.28,318.62,113.52s16.72,53.32,47.51,53.32,58.94,5.93,77.41,62.63-15.29,82.62-14.68,108.18a275.521,275.521,0,0,0,5.89,48.62Z" fill="#157f1f"/>
      <path id="Path_70" data-name="Path 70" d="M434.75,386.27H74.07S59.73,391,51.82,353.71s32.8-47.22,42.48-79.38-32.55-25.39-29-69.4S126.85,160.07,155,166s24.63-14.39,57.18-48.25S294,87.28,318.62,113.52s16.72,53.32,47.51,53.32,58.94,5.93,77.41,62.63-15.29,82.62-14.68,108.18a275.521,275.521,0,0,0,5.89,48.62Z" fill="#fff" opacity="0.7"/>
    </g>
    <g id="freepik--Chart--inject-16">
      <path id="Path_71" data-name="Path 71" d="M138.23,152.63V386.26h-8.8v-244Zm123.53,97.26-3.17-3.4V386.26h8.8V247.91Zm-54.84-58.82V386.26h8.81V200.51Zm-25.83-1.29V386.26h8.8V187Zm-25.83-17.15V386.26h8.8V183Zm77.5,46.15V386.26h8.8v-158Zm155,58.78v108.7h8.8V285.63Zm-25.83-23.69V386.26h8.8V261.94Zm-77.49-11.94V386.26h8.8V238.83Zm51.66-11.76V386.26h8.8v-148Zm-25.83,2.68V386.26h8.8V229.76Z" opacity="0.07"/>
      <path id="Path_72" data-name="Path 72" d="M416.62,303.63l-85.58-78.08-73.31,28.73-57.69-70.6-27.76,8.94-45.26-54.55" fill="none" stroke="#157f1f" stroke-linecap="round" stroke-linejoin="round" stroke-width="3"/>
      <path id="Path_73" data-name="Path 73" d="M137.03,133.74l-19.63-7.27,3.52,20.64Z" fill="#157f1f"/>
    </g>
    <g id="freepik--Gears--inject-16">
      <path id="Path_74" data-name="Path 74" d="M160.57,355.35l3.62-1.65-.77-4.34-4-.31a17.591,17.591,0,0,0-2-3.79l2.06-3.47-3.12-3.12-3.5,2.08a17.469,17.469,0,0,0-6.69-2.73l-1-4h-4.41l-1,4a17.679,17.679,0,0,0-4,1.26l-3.16-2.73L129,339.1l1.49,3.91A17.249,17.249,0,0,0,128,346.3l-4.16-.43L122.29,350l3.44,2.34a17.611,17.611,0,0,0-.25,2.92v1.24l-3.62,2,1.15,4.27,4.09-.06a17.409,17.409,0,0,0,2.25,3.58L127.63,370l3.38,2.84,3.28-2.35a17.611,17.611,0,0,0,3.94,1.67l.66,4,4.39.39,1.33-3.75a17.412,17.412,0,0,0,4.23-.91l2.77,2.82,3.82-2.21-1-3.8a17.8,17.8,0,0,0,2.93-3.2l3.88.72,1.87-4-3-2.52a17.821,17.821,0,0,0,.46-4.35Zm-6.53-.08a10.988,10.988,0,1,0-.04,0Z" fill="#fff"/>
      <path id="Path_75" data-name="Path 75" d="M133.72,314.63l3.62-1.65-.77-4.35-4-.31a17.291,17.291,0,0,0-2-3.78l2.06-3.48-3.12-3.12L126,300a17.5,17.5,0,0,0-6.69-2.73l-1-4H113.9l-1,4a17.251,17.251,0,0,0-4,1.26l-3.16-2.73-3.61,2.53,1.49,3.9a17.71,17.71,0,0,0-2.54,3.29L97,305.14l-1.51,4.15,3.44,2.33a17.64,17.64,0,0,0-.25,2.93,10.2,10.2,0,0,0,.05,1.24l-3.62,2,1.14,4.26,4.1-.05a17.621,17.621,0,0,0,2.25,3.57l-1.77,3.68,3.38,2.83,3.28-2.34a17.13,17.13,0,0,0,3.94,1.66l.66,4,4.39.38,1.33-3.74a17.42,17.42,0,0,0,4.23-.92l2.77,2.82,3.82-2.21-1.05-3.8a17.439,17.439,0,0,0,2.94-3.19l3.88.71,1.87-4-3.05-2.51A17.88,17.88,0,0,0,133.72,314.63Zm-6.53-.08a11,11,0,1,1-11-11,11,11,0,0,1,11,11Z" fill="#fff"/>
      <path id="Path_76" data-name="Path 76" d="M190.33,244.61l8.77-4-1.86-10.54-9.68-.75a42,42,0,0,0-4.84-9.17l5-8.43-7.57-7.57-8.5,5a42.38,42.38,0,0,0-16.22-6.62l-2.46-9.7h-10.7l-2.46,9.77a41.67,41.67,0,0,0-9.62,3.05l-7.65-6.62-8.77,6.14,3.62,9.46a42.639,42.639,0,0,0-6.15,8l-10.07-1-3.66,10,8.34,5.66a42.629,42.629,0,0,0-.61,7.11,25.082,25.082,0,0,0,.12,3l-8.77,4.9,2.77,10.34,9.93-.13a42.21,42.21,0,0,0,5.45,8.67l-4.28,8.91,8.19,6.88,8-5.69a42.191,42.191,0,0,0,9.57,4l1.59,9.58,10.66.94,3.21-9.08a42.049,42.049,0,0,0,10.26-2.22l6.73,6.84,9.26-5.35-2.54-9.22a43,43,0,0,0,7.12-7.76l9.41,1.74,4.52-9.7L189,255a43,43,0,0,0,1.33-10.39Zm-15.83-.18a26.72,26.72,0,1,1-26.72-26.72A26.72,26.72,0,0,1,174.5,244.43Z" fill="#fff"/>
      <path id="Path_77" data-name="Path 77" d="M411.18,212.8l3.62-1.65-.8-4.35-4-.31a17.711,17.711,0,0,0-2-3.78l2.05-3.47L407,196.12l-3.5,2.08a17.31,17.31,0,0,0-6.69-2.73l-1-4H391.4l-1,4a17.179,17.179,0,0,0-4,1.26L383.23,194l-3.62,2.53,1.49,3.91a17.592,17.592,0,0,0-2.53,3.28l-4.15-.43-1.51,4.15,3.44,2.33a17.727,17.727,0,0,0-.25,2.93v1.24l-3.62,2,1.14,4.26,4.1-.05a17.369,17.369,0,0,0,2.24,3.58l-1.76,3.67,3.38,2.84,3.27-2.35a17.49,17.49,0,0,0,4,1.67l.65,4,4.4.38,1.32-3.74a17.409,17.409,0,0,0,4.23-.91l2.78,2.81,3.82-2.2L405,226.1a17.862,17.862,0,0,0,2.94-3.2l3.88.71,1.86-4-3-2.52a17.33,17.33,0,0,0,.5-4.29Zm-6.52-.08a11,11,0,1,1-11-11A11,11,0,0,1,404.66,212.72Z" fill="#fff"/>
    </g>
    <g id="freepik--Plants--inject-16">
      <path id="Path_78" data-name="Path 78" d="M337.09,307.79c-2,5-4.12,1-3.79-20.05.15-9.86.85-30,11.75-25.57,10.48,4.26-3.33,34-3.33,34Zm15,3s22.74-23.69,14.21-31.12c-8.87-7.74-16.07,11.09-19.42,20.36-7.15,19.8-6.49,24.29-2.93,20.2Zm4.8,21.26s20.81-14.82,15.37-21.74c-5.67-7.2-13.9,6.15-17.8,12.76-8.33,14.1-8.48,17.63-5.17,15Zm5.63,21.19s20.81-14.81,15.37-21.73c-5.66-7.2-13.89,6.15-17.8,12.76-8.33,14.09-8.47,17.63-5.17,15Zm-36.35-42.61s-29.12-15.16-33.86-4.89c-4.93,10.69,15.17,12.31,25,12.91,21,1.3,25.13-.6,20.21-2.86Zm4.1,16.68s-31.55-9.06-34.15,1.94c-2.71,11.46,17.31,9.05,27.07,7.69,20.84-2.91,24.51-5.59,19.24-6.82Zm7.23,18.2s-26.9-6.94-28.84,2.43c-2,9.75,14.84,7.25,23.07,5.87,17.56-2.94,20.6-5.29,16.11-6.21Zm4.21,15s-26-9.76-28.94-.65c-3,9.48,14,8.79,22.32,8.29,17.77-1.06,21-3.07,16.68-4.47Zm-17.42-76.09s-11.87-36.9-25.34-30.2c-14,7,2.17,23.62,10.28,31.58,17.3,17,22.65,18.19,20.37,12.26Z" fill="#fff"/>
      <path id="Path_79" data-name="Path 79" d="M304.55,267.38s29.82,36.38,37,54.59c8.19,20.93,13.78,44.5,14.88,64" fill="none" stroke="#ccc" stroke-linecap="round" stroke-linejoin="round" stroke-width="1.252"/>
      <line id="Line_1" data-name="Line 1" y1="34.69" x2="4.15" transform="translate(335.57 275.4)" fill="none" stroke="#ccc" stroke-linecap="round" stroke-linejoin="round" stroke-width="1.252"/>
      <line id="Line_2" data-name="Line 2" y1="29.16" x2="15" transform="translate(341.51 292.81)" fill="none" stroke="#ccc" stroke-linecap="round" stroke-linejoin="round" stroke-width="1.252"/>
      <line id="Line_3" data-name="Line 3" x1="31.42" y1="6.4" transform="translate(307.9 311.25)" fill="none" stroke="#ccc" stroke-linecap="round" stroke-linejoin="round" stroke-width="1.252"/>
      <line id="Line_4" data-name="Line 4" y1="21.05" x2="18.47" transform="translate(347.41 317.47)" fill="none" stroke="#ccc" stroke-linecap="round" stroke-linejoin="round" stroke-width="1.252"/>
      <line id="Line_5" data-name="Line 5" x1="23.72" y1="0.21" transform="translate(321.11 331.38)" fill="none" stroke="#ccc" stroke-linecap="round" stroke-linejoin="round" stroke-width="1.252"/>
      <line id="Line_6" data-name="Line 6" x1="18.19" y2="0.72" transform="translate(331.2 348.8)" fill="none" stroke="#ccc" stroke-linecap="round" stroke-linejoin="round" stroke-width="1.252"/>
      <line id="Line_7" data-name="Line 7" y1="12.98" x2="9.74" transform="translate(353.13 346.81)" fill="none" stroke="#ccc" stroke-linecap="round" stroke-linejoin="round" stroke-width="1.252"/>
      <line id="Line_8" data-name="Line 8" x1="21.27" y1="1.06" transform="translate(332.57 363.56)" fill="none" stroke="#ccc" stroke-linecap="round" stroke-linejoin="round" stroke-width="1.252"/>
      <path id="Path_80" data-name="Path 80" d="M413.1,336.53c-3.67,1.38-2.54-1.71,8.81-11.88,5.32-4.76,16.38-14.29,19.38-6.31,2.88,7.66-19.75,15-19.75,15Zm5.78,9.43s23.77.45,23.53-7.74c-.24-8.52-13.8-3.1-20.38-.32-14,5.93-16.1,8.49-12.18,8.37Zm-9,13S428,362.75,429,356.45c1-6.55-10.1-4.36-15.53-3.19-11.6,2.49-13.55,4.15-10.53,4.63Zm-8.5,13.42s18.11,3.78,19.12-2.51c1-6.55-10.11-4.37-15.54-3.2-11.59,2.5-13.54,4.16-10.53,4.64Zm4.8-40.29s-6.25-22.94-14-20.41c-8.11,2.63.91,14.12,5.42,19.65,9.63,11.81,12.67,13.07,11.46,9.34Zm-6.86,10.39s-10.69-21.24-17.82-17.22c-7.42,4.2,3.7,13.66,9.22,18.18,11.79,9.66,15,10.29,13.09,6.88Zm-6.13,12.78s-9.53-17.71-15.46-14.14c-6.19,3.71,3.44,11.46,8.21,15.16,10.2,7.89,12.94,8.35,11.23,5.51Zm-5.92,9.62s-7.59-18.62-13.88-15.7c-6.54,3,2.21,11.76,6.57,15.94,9.29,8.94,12,9.68,10.57,6.68Zm31.92-46.66s13.79-24.45,3.6-28.32c-10.61-4-11.49,12.76-11.74,21-.54,17.56,1.45,21,3.49,16.86Z" fill="#fff"/>
      <path id="Path_81" data-name="Path 81" d="M418.61,299.36s-4.7,33.74-10.88,46.49c-7.1,14.64-17.81,30.23-27.65,40.41" fill="none" stroke="#ccc" stroke-linecap="round" stroke-linejoin="round" stroke-width="1.252"/>
      <line id="Line_9" data-name="Line 9" y1="14.85" x2="20.5" transform="translate(411.13 322)" fill="none" stroke="#ccc" stroke-linecap="round" stroke-linejoin="round" stroke-width="1.252"/>
      <line id="Line_10" data-name="Line 10" y1="6.36" x2="22.89" transform="translate(407.73 339.49)" fill="none" stroke="#ccc" stroke-linecap="round" stroke-linejoin="round" stroke-width="1.252"/>
      <line id="Line_11" data-name="Line 11" x1="12.03" y1="19.86" transform="translate(396.92 322.7)" fill="none" stroke="#ccc" stroke-linecap="round" stroke-linejoin="round" stroke-width="1.252"/>
      <line id="Line_12" data-name="Line 12" y1="0.52" x2="20.28" transform="translate(401.83 356.6)" fill="none" stroke="#ccc" stroke-linecap="round" stroke-linejoin="round" stroke-width="1.252"/>
      <line id="Line_13" data-name="Line 13" x1="11.55" y1="12.72" transform="translate(392.7 339.62)" fill="none" stroke="#ccc" stroke-linecap="round" stroke-linejoin="round" stroke-width="1.252"/>
      <line id="Line_14" data-name="Line 14" x1="9.33" y1="9.32" transform="translate(388.01 353.91)" fill="none" stroke="#ccc" stroke-linecap="round" stroke-linejoin="round" stroke-width="1.252"/>
      <line id="Line_15" data-name="Line 15" y1="1.2" x2="11.69" transform="translate(393.33 369.42)" fill="none" stroke="#ccc" stroke-linecap="round" stroke-linejoin="round" stroke-width="1.252"/>
      <line id="Line_16" data-name="Line 16" x1="9.89" y1="11.83" transform="translate(381.22 361.54)" fill="none" stroke="#ccc" stroke-linecap="round" stroke-linejoin="round" stroke-width="1.252"/>
    </g>
    <g id="freepik--Character--inject-16">
      <ellipse id="Ellipse_4" data-name="Ellipse 4" cx="65.29" cy="10.88" rx="65.29" ry="10.88" transform="translate(200 390.24)" fill="#157f1f"/>
      <ellipse id="Ellipse_5" data-name="Ellipse 5" cx="65.29" cy="10.88" rx="65.29" ry="10.88" transform="translate(200 390.24)" fill="#fff" opacity="0.5"/>
      <path id="Path_82" data-name="Path 82" d="M259.65,163a60.76,60.76,0,0,0-5.54,44.21c6.41,25.06,24.2,54.06,24.2,54.06l22.16-7s-1.75-41.67-11.08-61.38S262.86,162.43,259.65,163Z" fill="#263238" stroke="#263238" stroke-linecap="round" stroke-linejoin="round" stroke-width="1"/>
      <path id="Path_83" data-name="Path 83" d="M274.81,161.53a64.89,64.89,0,0,0-5.54,45.79c6.42,26,24.21,56,24.21,56L315.64,256s-1.75-43.15-11.08-63.57S278,161,274.81,161.53Z" fill="#157f1f"/>
      <g id="Group_3" data-name="Group 3" clip-path="url(#clip-path)">
        <path id="Path_84" data-name="Path 84" d="M274,173a57.53,57.53,0,0,0-4.91,40.61c5.69,23,21.47,49.66,21.47,49.66l19.66-6.46s-1.55-38.29-9.83-56.39S276.82,172.51,274,173Z" opacity="0.29"/>
      </g>
      <path id="Path_86" data-name="Path 86" d="M274.81,161.53a64.89,64.89,0,0,0-5.54,45.79c6.42,26,24.21,56,24.21,56L315.64,256s-1.75-43.15-11.08-63.57S278,161,274.81,161.53Z" fill="none" stroke="#263238" stroke-linecap="round" stroke-linejoin="round" stroke-width="1"/>
      <path id="Path_87" data-name="Path 87" d="M274.81,161.53a63.17,63.17,0,0,0-7.39,28.05,55.66,55.66,0,0,0,12.62-.9,52.37,52.37,0,0,0,18.4-7C289.11,168.2,277.4,161.06,274.81,161.53Z" fill="#263238" stroke="#263238" stroke-linecap="round" stroke-linejoin="round" stroke-width="1"/>
      <path id="Path_88" data-name="Path 88" d="M315.37,251.19l-24.05,8.33c1.34,2.4,2.16,3.78,2.16,3.78l22.16-7.3S315.56,254.21,315.37,251.19Z" fill="#263238" stroke="#263238" stroke-linecap="round" stroke-linejoin="round" stroke-width="1"/>
      <path id="Path_89" data-name="Path 89" d="M219.47,388.33s-8.4,6.11-15.27,8-2.29,5.72,3.05,5.72,14.13-1.91,18.33-1.91,8,1.53,9.55-2.29.38-6.11.38-6.11S224.82,388.71,219.47,388.33Z" fill="#fff" stroke="#263238" stroke-linecap="round" stroke-linejoin="round" stroke-width="1"/>
      <path id="Path_90" data-name="Path 90" d="M226.32,397.72c-6.63,0-9.43,2.1-16.24,2.62a13.52,13.52,0,0,1-9.08-2.25c-1.28,1.87,2.28,4,6.25,4,5.35,0,14.13-1.91,18.33-1.91s8,1.53,9.55-2.29a10.88,10.88,0,0,0,.71-2.67A24,24,0,0,1,226.32,397.72Z" fill="#fff" stroke="#263238" stroke-linecap="round" stroke-linejoin="round" stroke-width="1"/>
      <path id="Path_91" data-name="Path 91" d="M283.8,390.21s-5.06,8.39-8,10.83-4.89,5.24-1.58,5.42,10.14-1.75,16.43-4.37,12.4-9.43,12.4-10.48-3.14-5.77-3.14-5.77S288.17,387.77,283.8,390.21Z" fill="#fff" stroke="#263238" stroke-linecap="round" stroke-linejoin="round" stroke-width="1"/>
      <path id="Path_92" data-name="Path 92" d="M302.37,390a42.47,42.47,0,0,1-14.72,10.37c-7.72,3.31-12.76,4.21-15.09,4.46-.31.92.08,1.58,1.63,1.66,3.32.17,10.14-1.75,16.43-4.37s12.4-9.43,12.4-10.48a4.919,4.919,0,0,0-.65-1.64Z" fill="#fff" stroke="#263238" stroke-linecap="round" stroke-linejoin="round" stroke-width="1"/>
      <path id="Path_93" data-name="Path 93" d="M237.42,258.89l-4.58,14.89S216,310.05,212.6,319.6s4.58,26.35,5.35,37,.38,25.2.38,25.2a3.89,3.89,0,0,0-1.53,2.67v5l19.85,4.58s.77-9.54,0-14.5-1.52-35.9-1.52-40.48-1.53-13.74-1.53-13.74l14.51-19.09s-4.2,22.52-2.67,26.72,14.89,20.24,18.32,23.29,21,26.73,21,26.73-2.67,2.29-2.67,4.2a33.8,33.8,0,0,0,.76,5.35l17.95-5s-2.29-7.25-6.11-16.8-25.2-43.14-25.2-43.14,17.18-42.77,17.18-52.31.38-16.42.38-16.42S257.27,266.91,237.42,258.89Z" fill="#263238" stroke="#263238" stroke-linecap="round" stroke-linejoin="round" stroke-width="1"/>
      <path id="Path_94" data-name="Path 94" d="M248.11,306.24l4.58-22.53-6.11-8.02" fill="none" stroke="#fff" stroke-linecap="round" stroke-linejoin="round" stroke-width="1"/>
      <path id="Path_95" data-name="Path 95" d="M219.25,253.64a1.56,1.56,0,0,1-.83-3l39.69-15a1.56,1.56,0,1,1,1.1,2.92l-39.68,15a1.638,1.638,0,0,1-.28.08Z" fill="#263238" stroke="#263238" stroke-linecap="round" stroke-linejoin="round" stroke-width="1"/>
      <path id="Path_96" data-name="Path 96" d="M220.92,234s4.26,1.28,15.69-5.17l3.14,12.35s-8.11,3.5-20.1,1.85Z" fill="#fff"/>
      <g id="Group_4" data-name="Group 4" clip-path="url(#clip-path-2)">
        <path id="Path_97" data-name="Path 97" d="M220.92,234s4.26,1.28,15.69-5.17l3.14,12.35s-8.11,3.5-20.1,1.85Z" opacity="0.15"/>
      </g>
      <path id="Path_99" data-name="Path 99" d="M220.92,234s4.26,1.28,15.69-5.17l3.14,12.35s-8.11,3.5-20.1,1.85Z" fill="none" stroke="#263238" stroke-linecap="round" stroke-linejoin="round" stroke-width="1"/>
      <path id="Path_100" data-name="Path 100" d="M220.4,250.92a2.58,2.58,0,0,1-2.48-1.91l-6.11-23a2.586,2.586,0,0,1,5-1.32l6.11,23a2.56,2.56,0,0,1-1.82,3.14,2.5,2.5,0,0,1-.7.09Z" fill="#157f1f" stroke="#263238" stroke-miterlimit="10" stroke-width="1"/>
      <path id="Path_101" data-name="Path 101" d="M222.76,229.27c-2.92-1.26-5.1,7.67-1.36,10.3,2,1.4,3.26-1.26,3.45-3s.13-4.76-.86-6.19a3.11,3.11,0,0,0-1.23-1.11Z" fill="#fff" stroke="#263238" stroke-linecap="round" stroke-linejoin="round" stroke-width="1"/>
      <path id="Path_102" data-name="Path 102" d="M221.81,242.59s-4.33-.16-6,1.29-.43,3.18.56,3,5.59-.61,6.5-1.56S223.79,243.84,221.81,242.59Z" fill="#fff" stroke="#263238" stroke-linecap="round" stroke-linejoin="round" stroke-width="1"/>
      <path id="Path_103" data-name="Path 103" d="M220.64,238.61s-5-.28-6.93,1.45-.44,3.89.71,3.73,6.49-.64,7.53-1.79S223,240.17,220.64,238.61Z" fill="#fff" stroke="#263238" stroke-linecap="round" stroke-linejoin="round" stroke-width="1"/>
      <path id="Path_104" data-name="Path 104" d="M220.18,234.54s-6.1-1.12-8.68.7-1.14,4.67.29,4.66,8,.22,9.45-1S222.77,236.81,220.18,234.54Z" fill="#fff" stroke="#263238" stroke-linecap="round" stroke-linejoin="round" stroke-width="1"/>
      <path id="Path_105" data-name="Path 105" d="M219.85,229.69s-6.09-1.12-8.68.7-1.13,4.66.3,4.65,8,.22,9.45-1S222.44,232,219.85,229.69Z" fill="#fff" stroke="#263238" stroke-linecap="round" stroke-linejoin="round" stroke-width="1"/>
      <path id="Path_106" data-name="Path 106" d="M235.79,186.1s-7.48,13.74-6.06,25.26,6.06,23,7.27,28.08-2.63,17-1.82,20.6,17.78,5.46,32.33,6.07,21-3.24,21.82-7.28,1.21-3.43.6-10.91-7.27-47.07-11.31-54.75S255.39,178.83,252.15,178,240,178.43,235.79,186.1Z" fill="#fff"/>
      <g id="Group_5" data-name="Group 5" clip-path="url(#clip-path-3)">
        <path id="Path_107" data-name="Path 107" d="M272.16,195.63l-7.67,12s-.66,5.67,2.34,10A84.882,84.882,0,0,0,272.5,225l-14.68-7.67s9.68,15,12.34,18,6.67,8,2.67,13.68c-3.87,5.48-21.46,12.53-23.22,15.7,5.51.7,11.91,1.16,17.9,1.41,14.54.6,21-3.24,21.82-7.28s1.21-3.43.6-10.91c-.57-7-6.45-42.16-10.51-52.91C276.39,194.29,273.79,194.32,272.16,195.63Z" opacity="0.15"/>
      </g>
      <path id="Path_109" data-name="Path 109" d="M235.79,186.1s-7.48,13.74-6.06,25.26,6.06,23,7.27,28.08-2.63,17-1.82,20.6,17.78,5.46,32.33,6.07,21-3.24,21.82-7.28,1.21-3.43.6-10.91-7.27-47.07-11.31-54.75S255.39,178.83,252.15,178,240,178.43,235.79,186.1Z" fill="none" stroke="#263238" stroke-linecap="round" stroke-linejoin="round" stroke-width="1"/>
      <path id="Path_110" data-name="Path 110" d="M251.55,173.78,237,192.16l7.73,10.91,12.83-24.06Z" fill="#fff" stroke="#263238" stroke-linecap="round" stroke-linejoin="round" stroke-width="1"/>
      <path id="Path_111" data-name="Path 111" d="M231.21,190.94l-.16,8.29,6.63-3.98Z" fill="#fff" stroke="#263238" stroke-linecap="round" stroke-linejoin="round" stroke-width="1"/>
      <path id="Path_112" data-name="Path 112" d="M233.54,184.14l-2.33,6.8,9.12,8.12Z" fill="#fff" stroke="#263238" stroke-linecap="round" stroke-linejoin="round" stroke-width="1"/>
      <path id="Path_113" data-name="Path 113" d="M229.84,174.7s7.4,20.31,9.52,19.67,10.58-15,11-17.77-2.54-9.31-2.54-9.31a56.07,56.07,0,0,0-11.64,4.23C229.62,174.7,229.84,174.7,229.84,174.7Z" fill="#fff"/>
      <g id="Group_6" data-name="Group 6" clip-path="url(#clip-path-4)">
        <path id="Path_114" data-name="Path 114" d="M236.18,171.52l-.28.14a6.23,6.23,0,0,1-.76,1.63c-1.92,2.87-3.55,3.77-4.31,4.05.06.16.12.32.19.49L245.68,186c2.36-3.93,4.47-8,4.68-9.37.42-2.75-2.54-9.31-2.54-9.31a56.07,56.07,0,0,0-11.64,4.2Z" fill="#157f1f"/>
        <path id="Path_115" data-name="Path 115" d="M236.18,171.52l-.28.14a6.23,6.23,0,0,1-.76,1.63c-1.92,2.87-3.55,3.77-4.31,4.05.06.16.12.32.19.49L245.68,186c2.36-3.93,4.47-8,4.68-9.37.42-2.75-2.54-9.31-2.54-9.31a56.07,56.07,0,0,0-11.64,4.2Z" fill="#fff" opacity="0.5"/>
      </g>
      <path id="Path_117" data-name="Path 117" d="M229.84,174.7s7.4,20.31,9.52,19.67,10.58-15,11-17.77-2.54-9.31-2.54-9.31a56.07,56.07,0,0,0-11.64,4.23C229.62,174.7,229.84,174.7,229.84,174.7Z" fill="none" stroke="#263238" stroke-linecap="round" stroke-linejoin="round" stroke-width="1"/>
      <path id="Path_118" data-name="Path 118" d="M229.73,211.36s4.24,5.86,25.45,5.65l3.84,5.66s-16.77,3.64-28.28-6.06Z" fill="#263238" stroke="#263238" stroke-linecap="round" stroke-linejoin="round" stroke-width="1"/>
      <path id="Path_119" data-name="Path 119" d="M262.25,181.86s-6.66,1.21-9.89,14.14,4.44,29.9,16.56,34.55,18.39-3.64,18.39-3.64l-1.82-4.44s-4.24,8.28-14.75,3.84S256.19,211,257,200.24s10.51-15.75,10.51-15.75Z" fill="#263238" stroke="#263238" stroke-linecap="round" stroke-linejoin="round" stroke-width="1"/>
      <path id="Path_120" data-name="Path 120" d="M242,262.13a1.71,1.71,0,0,1-.31-3.4l73.75-25.94a1.72,1.72,0,1,1,.64,3.38l-73.76,25.94a1.718,1.718,0,0,1-.32.02Z" fill="#263238" stroke="#263238" stroke-linecap="round" stroke-linejoin="round" stroke-width="1"/>
      <path id="Path_121" data-name="Path 121" d="M244.54,259.18a2.87,2.87,0,0,1-2.77-2.12L235,231.43a2.87,2.87,0,1,1,5.54-1.47l6.82,25.62a2.87,2.87,0,0,1-2,3.51,3.18,3.18,0,0,1-.82.09Z" fill="#157f1f" stroke="#263238" stroke-miterlimit="10" stroke-width="1"/>
      <path id="Path_122" data-name="Path 122" d="M259,245.09s-8.89-6.86-11.51-8.68-8.69.6-10.71.6-4.65,2-4.24,3.44a5.13,5.13,0,0,0,2,2.42s-1.42,2.43-.21,4.25a6.07,6.07,0,0,1,1.22,3,9,9,0,0,0,2.22,3.23c1.21.81,3.84,1.21,7.07,1.21s8.89-2.22,8.89-2.22l5.66-.2Z" fill="#fff"/>
      <g id="Group_7" data-name="Group 7" clip-path="url(#clip-path-5)">
        <path id="Path_123" data-name="Path 123" d="M253.77,252.37l5.66-.2-.08-1.39-.86-4.12s-9.67-6-13.68-5.67-6.33.3-6.67,6.34a9.07,9.07,0,0,0,2.59,7,28.219,28.219,0,0,0,4.15.28C248.11,254.59,253.77,252.37,253.77,252.37Z" fill="#157f1f"/>
        <path id="Path_124" data-name="Path 124" d="M253.77,252.37l5.66-.2-.08-1.39-.86-4.12s-9.67-6-13.68-5.67-6.33.3-6.67,6.34a9.07,9.07,0,0,0,2.59,7,28.219,28.219,0,0,0,4.15.28C248.11,254.59,253.77,252.37,253.77,252.37Z" fill="#fff" opacity="0.5"/>
      </g>
      <path id="Path_126" data-name="Path 126" d="M259,245.09s-8.89-6.86-11.51-8.68-8.69.6-10.71.6-4.65,2-4.24,3.44a5.13,5.13,0,0,0,2,2.42s-1.42,2.43-.21,4.25a6.07,6.07,0,0,1,1.22,3,9,9,0,0,0,2.22,3.23c1.21.81,3.84,1.21,7.07,1.21s8.89-2.22,8.89-2.22l5.66-.2Z" fill="none" stroke="#263238" stroke-linecap="round" stroke-linejoin="round" stroke-width="1"/>
      <path id="Path_127" data-name="Path 127" d="M264.88,188.33s-7.27,6.66-4.44,15.55S275,221.05,278,225.09a65.312,65.312,0,0,0,7.28,7.88s-9.1,4.45-15.56,7.28a81.064,81.064,0,0,1-11.31,4l.2,7.67s22.22,1,32.52-3,17.78-9.09,17.78-15.15S296,216.41,289.12,205.5s-11.92-16.57-18.78-17.58" fill="#fff"/>
      <g id="Group_8" data-name="Group 8" clip-path="url(#clip-path-6)">
        <path id="Path_128" data-name="Path 128" d="M291.14,248.93c10.31-4,17.78-9.09,17.78-15.15S296,216.41,289.12,205.5c-4.93-7.84-8.93-12.95-13.34-15.59,1.92,1.92,7.78,8.05,8.06,11.39.33,4-16.34,2.34-13.34,4.34s16.67,6.67,22.68,12,13.67,10,10.34,14-19,9-30.35,16.34a11,11,0,0,0-4,4C276.31,251.84,285.51,251.14,291.14,248.93Z" opacity="0.15"/>
      </g>
      <path id="Path_130" data-name="Path 130" d="M264.88,188.33s-7.27,6.66-4.44,15.55S275,221.05,278,225.09a65.312,65.312,0,0,0,7.28,7.88s-9.1,4.45-15.56,7.28a81.064,81.064,0,0,1-11.31,4l.2,7.67s22.22,1,32.52-3,17.78-9.09,17.78-15.15S296,216.41,289.12,205.5s-11.92-16.57-18.78-17.58" fill="none" stroke="#263238" stroke-linecap="round" stroke-linejoin="round" stroke-width="1"/>
      <line id="Line_17" data-name="Line 17" x2="0.81" y2="8.89" transform="translate(262.66 243.07)" fill="none" stroke="#263238" stroke-linecap="round" stroke-linejoin="round" stroke-width="1"/>
      <path id="Path_131" data-name="Path 131" d="M285.29,233s7.27-4.85,11.92-6.06" fill="none" stroke="#263238" stroke-linecap="round" stroke-linejoin="round" stroke-width="1"/>
      <path id="Path_132" data-name="Path 132" d="M227.59,142.38a59.718,59.718,0,0,0-2.07,6c-.49,2.06-3.1,5.79-4.63,6.74s-5.1,2.28-3.53,4a17.55,17.55,0,0,0,4.71,3.06s-1.23,7.1-.45,11.19,3.66,4.78,6.27,4.74,12.46-1.21,15.79-5.21,8.69-16.65,6.06-24.87S232.25,134.57,227.59,142.38Z" fill="#fff"/>
      <g id="Group_9" data-name="Group 9" clip-path="url(#clip-path-7)">
        <path id="Path_133" data-name="Path 133" d="M233.81,156.61c1.33,5.34,4,12.67,1.33,16.68s-4.79,4.18-4.79,4.18l.66.36c4-.53,10.17-1.94,12.67-4.94,3.33-4,8.69-16.65,6.06-24.87a10.56,10.56,0,0,0-1.84-3.34l-11.09,2.26S232.47,151.27,233.81,156.61Z" fill="#157f1f"/>
        <path id="Path_134" data-name="Path 134" d="M233.81,156.61c1.33,5.34,4,12.67,1.33,16.68s-4.79,4.18-4.79,4.18l.66.36c4-.53,10.17-1.94,12.67-4.94,3.33-4,8.69-16.65,6.06-24.87a10.56,10.56,0,0,0-1.84-3.34l-11.09,2.26S232.47,151.27,233.81,156.61Z" fill="#fff" opacity="0.5"/>
      </g>
      <path id="Path_136" data-name="Path 136" d="M227.59,142.38a59.718,59.718,0,0,0-2.07,6c-.49,2.06-3.1,5.79-4.63,6.74s-5.1,2.28-3.53,4a17.55,17.55,0,0,0,4.71,3.06s-1.23,7.1-.45,11.19,3.66,4.78,6.27,4.74,12.46-1.21,15.79-5.21,8.69-16.65,6.06-24.87S232.25,134.57,227.59,142.38Z" fill="none" stroke="#263238" stroke-linecap="round" stroke-linejoin="round" stroke-width="1"/>
      <path id="Path_137" data-name="Path 137" d="M241,171.45s-6,5.16-10.6,6c0,0,8,1.14,16.33-5.73Z" fill="#263238" stroke="#263238" stroke-linecap="round" stroke-linejoin="round" stroke-width="1"/>
      <path id="Path_138" data-name="Path 138" d="M228.56,149.35s2.19-3.91,4.59,1.08" fill="none" stroke="#263238" stroke-linecap="round" stroke-linejoin="round" stroke-width="1"/>
      <path id="Path_139" data-name="Path 139" d="M224.06,164.81s3.93,1.79,7.07-.51" fill="none" stroke="#263238" stroke-linecap="round" stroke-linejoin="round" stroke-width="1"/>
      <path id="Path_140" data-name="Path 140" d="M229.36,153.34c-.23,1-.73,1.68-1.13,1.58s-.54-.95-.31-1.92.73-1.67,1.13-1.58S229.59,152.37,229.36,153.34Z" fill="#263238"/>
      <path id="Path_141" data-name="Path 141" d="M223.48,145.22s16.33,4.48,16.68,7.61-2.53,9.73-1,16.38,10.59,8.58,18.15,6,13-16.5,12-28S256.6,129,247.44,127.27,224.37,132.17,223.48,145.22Z" fill="#157f1f"/>
      <g id="Group_10" data-name="Group 10" clip-path="url(#clip-path-8)">
        <path id="Path_142" data-name="Path 142" d="M254.49,136.6a25,25,0,0,0-4.64-.37,3.45,3.45,0,0,1,1,2.37,4,4,0,0,1-8,0,3.079,3.079,0,0,1,.09-.75c-4.1,2.06-7,5.86-10,10.45,3.7,1.43,7.11,3.12,7.27,4.53.36,3.13-2.53,9.73-1,16.38s10.59,8.58,18.15,6c7.14-2.43,12.39-15,12.12-26.11C268.1,146.09,263.89,138.21,254.49,136.6Z" opacity="0.29"/>
      </g>
      <path id="Path_144" data-name="Path 144" d="M223.48,145.22s16.33,4.48,16.68,7.61-2.53,9.73-1,16.38,10.59,8.58,18.15,6,13-16.5,12-28S256.6,129,247.44,127.27,224.37,132.17,223.48,145.22Z" fill="none" stroke="#263238" stroke-linecap="round" stroke-linejoin="round" stroke-width="1"/>
      <path id="Path_145" data-name="Path 145" d="M243.72,169.68c-4-6.39,1.19-16-1.2-18.76-2-2.27-14.2-6.65-18.7-8.21a20,20,0,0,0-.34,2.51s16.33,4.48,16.68,7.61-2.53,9.73-1,16.38,10.59,8.58,18.15,6h.1C252.05,175.47,246.34,173.87,243.72,169.68Z" fill="#263238" stroke="#263238" stroke-linecap="round" stroke-linejoin="round" stroke-width="1"/>
    </g>
  </g>
</svg>
