<svg xmlns="http://www.w3.org/2000/svg" width="166.669" height="42.613" viewBox="0 0 166.669 42.613">
  <g id="logo" transform="translate(-21.5 -12)">
    <text id="wawiz" transform="translate(76.169 45)" fill="#157f1f" font-size="36" font-family="WorkSans-SemiBold, Work Sans" font-weight="600"><tspan x="0" y="0">wa</tspan><tspan y="0" fill="#363636">wiz</tspan></text>
    <path id="Subtraction_1" data-name="Subtraction 1" d="M19.579,39.157A19.514,19.514,0,0,1,9.084,36.11L.611,38.6,3.6,30.891A19.58,19.58,0,0,1,19.579,0,19.412,19.412,0,0,1,31.324,3.913a19.738,19.738,0,0,1,6.976,9.92H29.855a2.618,2.618,0,0,0-2.471,1.752h-2.02a2.618,2.618,0,0,0-2.471-1.752H14.083a2.626,2.626,0,0,0-2.471,1.752H10.6a1.062,1.062,0,1,0,0,2.123h.86V22.1a2.623,2.623,0,0,0,2.62,2.62h7.68a2.628,2.628,0,0,0,2.569-2.106l.981-4.9h2.122l.981,4.9a2.628,2.628,0,0,0,2.569,2.106h7.491a19.7,19.7,0,0,1-6.907,10.339A19.389,19.389,0,0,1,19.579,39.157ZM38.662,22.594H30.984a.5.5,0,0,1-.486-.4L29.369,16.55a.5.5,0,0,1,.486-.594h8.808a.494.494,0,0,1,.166.029,19.8,19.8,0,0,1,.111,6.525A.493.493,0,0,1,38.662,22.594Zm-3.687-6.107a.844.844,0,0,0-.6.249L32.25,18.861a.85.85,0,0,0,1.2,1.2l2.123-2.123a.85.85,0,0,0-.6-1.451Zm-2.814,0a.844.844,0,0,0-.6.249l-.531.531a.85.85,0,0,0,1.2,1.2l.531-.531a.85.85,0,0,0-.6-1.451Zm-10.4,6.107h-7.68a.5.5,0,0,1-.495-.5V16.452a.5.5,0,0,1,.495-.5h8.809a.484.484,0,0,1,.383.182.5.5,0,0,1,.1.412L22.249,22.2A.5.5,0,0,1,21.763,22.594Zm-3.089-6.107a.844.844,0,0,0-.6.249l-2.125,2.125a.849.849,0,0,0,1.2,1.2l2.123-2.123a.85.85,0,0,0-.6-1.451Zm-2.814,0a.844.844,0,0,0-.6.249l-.531.531a.85.85,0,0,0,1.2,1.2l.531-.531a.85.85,0,0,0-.6-1.451Z" transform="translate(21.5 15.456)" fill="#157f1f"/>
  </g>
</svg>
